<svg width="17" height="17" viewBox="0 0 17 17" fill="none" xmlns="http://www.w3.org/2000/svg">
<mask id="mask0" mask-type="alpha" maskUnits="userSpaceOnUse" x="0" y="0" width="17" height="17">
<path fill-rule="evenodd" clip-rule="evenodd" d="M0 0H17V17H0V0Z" fill="white"/>
</mask>
<g mask="url(#mask0)">
<path fill-rule="evenodd" clip-rule="evenodd" d="M8.5 0C3.80585 0 0 3.80585 0 8.5C0 13.1939 3.80585 17 8.5 17C13.1939 17 17 13.1939 17 8.5C17 3.80585 13.1939 0 8.5 0ZM12.9885 12.4023L12.308 13.0831C12.1865 13.2043 11.8307 13.2802 11.8191 13.2802C9.66613 13.2989 7.59306 12.4532 6.06992 10.9301C4.54254 9.40171 3.69595 7.32117 3.71881 5.16107C3.71881 5.15991 3.79663 4.81443 3.91787 4.69415L4.59865 4.01337C4.84767 3.76339 5.32592 3.65021 5.66102 3.76223L5.80438 3.81008C6.13848 3.9221 6.48919 4.2914 6.58141 4.6319L6.92381 5.88834C7.01624 6.22979 6.89173 6.71534 6.64271 6.96436L6.18828 7.41879C6.63445 9.07068 7.93028 10.3665 9.58217 10.8138L10.0366 10.3594C10.2866 10.1092 10.7723 9.98471 11.1126 10.0771L12.3691 10.4205C12.7096 10.5139 13.0789 10.8626 13.1909 11.1966L13.2387 11.3418C13.3497 11.676 13.2376 12.1544 12.9885 12.4023Z" fill="white"/>
</g>
</svg>
