<svg width="28" height="19" viewBox="0 0 28 19" fill="none" xmlns="http://www.w3.org/2000/svg">
<mask id="mask0" mask-type="alpha" maskUnits="userSpaceOnUse" x="0" y="0" width="28" height="19">
<path fill-rule="evenodd" clip-rule="evenodd" d="M0.00408936 0.00674438H27.9411V18.9434H0.00408936V0.00674438Z" fill="white"/>
</mask>
<g mask="url(#mask0)">
<path fill-rule="evenodd" clip-rule="evenodd" d="M27.2569 0.586129C26.8008 0.199738 26.2529 0.00674438 25.6126 0.00674438H2.32849C1.68816 0.00674438 1.14018 0.199738 0.683825 0.586129C0.227806 0.97252 0 1.4367 0 1.97917V16.9707C0 17.5134 0.227806 17.9776 0.683825 18.364C1.14018 18.7501 1.68816 18.9434 2.32849 18.9434H25.6126C26.2529 18.9434 26.8008 18.7501 27.2569 18.364C27.7127 17.9776 27.9411 17.5134 27.9411 16.9707V1.97917C27.9411 1.4367 27.7127 0.97252 27.2569 0.586129ZM26.078 16.9709C26.078 17.078 26.032 17.1702 25.94 17.2484C25.8478 17.3263 25.7387 17.3651 25.6126 17.3651H2.32849C2.20235 17.3651 2.09327 17.3263 2.00112 17.2482C1.90903 17.17 1.86282 17.0777 1.86282 16.9707V9.47502H26.0783V16.9709H26.078ZM26.078 4.74057H1.86282V1.97894C1.86282 1.87214 1.90876 1.77991 2.00084 1.70166C2.09327 1.62382 2.20235 1.58467 2.32849 1.58467H25.6126C25.7385 1.58467 25.8478 1.62359 25.94 1.70166C26.032 1.77991 26.078 1.87214 26.078 1.97894V4.74057Z" fill="#005C9C"/>
</g>
<path fill-rule="evenodd" clip-rule="evenodd" d="M4 16H8V14H4V16Z" fill="#005C9C"/>
<path fill-rule="evenodd" clip-rule="evenodd" d="M9 16H15V14H9V16Z" fill="#005C9C"/>
</svg>
