<svg width="20" height="15" viewBox="0 0 20 15" fill="none" xmlns="http://www.w3.org/2000/svg">
<path fill-rule="evenodd" clip-rule="evenodd" d="M17.6264 0H2.37388C1.06481 0 0 1.00996 0 2.25119V12.7488C0 13.9903 1.06481 15 2.37388 15H17.6264C18.9352 15 20 13.9903 20 12.7488V2.25119C20 1.00996 18.9352 0 17.6264 0ZM17.6264 13.0126H2.37388C2.1814 13.0126 2.01266 12.8896 2.01266 12.7488V3.6394L8.91097 9.39023C9.05243 9.50814 9.23234 9.57298 9.41742 9.57298H10.5826C10.7677 9.57298 10.9476 9.50814 11.089 9.39023L17.9876 3.63912V12.7491C17.9873 12.8896 17.8186 13.0126 17.6264 13.0126ZM10 7.59985L3.2906 1.98739H16.7097L10 7.59985Z" fill="#005C9C"/>
</svg>
