<svg width="20" height="20" viewBox="0 0 20 20" fill="none" xmlns="http://www.w3.org/2000/svg">
<mask id="mask0" mask-type="alpha" maskUnits="userSpaceOnUse" x="0" y="0" width="20" height="20">
<path fill-rule="evenodd" clip-rule="evenodd" d="M0 0H20V20H0V0Z" fill="white"/>
</mask>
<g mask="url(#mask0)">
<path fill-rule="evenodd" clip-rule="evenodd" d="M10 0C4.47747 0 0 4.47747 0 10C0 15.5223 4.47747 20 10 20C15.5223 20 20 15.5223 20 10C20 4.47747 15.5223 0 10 0ZM15.2806 14.5909L14.48 15.3919C14.3371 15.5345 13.9184 15.6238 13.9049 15.6238C11.3719 15.6457 8.93301 14.6509 7.14108 12.8589C5.34416 11.0608 4.34817 8.61314 4.37508 6.07185C4.37508 6.07048 4.46663 5.66403 4.60925 5.52253L5.41018 4.72161C5.70315 4.42752 6.26579 4.29436 6.66003 4.42615L6.82868 4.48245C7.22174 4.61423 7.63434 5.04871 7.74283 5.44929L8.14566 6.92746C8.2544 7.32916 8.10792 7.9004 7.81495 8.19337L7.28034 8.72798C7.80524 10.6714 9.32974 12.1959 11.2731 12.7222L11.8078 12.1875C12.1019 11.8932 12.6733 11.7467 13.0737 11.8555L14.5518 12.2594C14.9524 12.3693 15.3869 12.7796 15.5187 13.1724L15.575 13.3433C15.7056 13.7365 15.5736 14.2993 15.2806 14.5909Z" fill="#005C9C"/>
</g>
</svg>
