<svg width="42" height="22" viewBox="0 0 42 22" fill="none" xmlns="http://www.w3.org/2000/svg">
<g clip-path="url(#clip0)">
<path d="M0 17.0799V0.315728H2.8934V17.0799H0ZM5.06475 17.0797V5.22205H7.95925V17.0797H5.06475V17.0797ZM8.43771 1.7644C8.43771 2.73969 7.64729 3.53058 6.67154 3.53058C5.69752 3.53058 4.90632 2.73969 4.90632 1.7644C4.90632 0.789124 5.69752 -0.000976562 6.67154 -0.000976562C7.64729 -0.000976562 8.43771 0.789124 8.43771 1.7644V1.7644ZM15.8447 2.72734C14.7868 2.72734 14.0703 3.30251 14.0703 4.56727V5.20701H17.2458V7.48678H14.161V17.0797H11.2934V7.48678H9.65452V5.20701H11.2934V4.29441C11.2934 2.75346 11.6382 1.92569 12.2822 1.28183C12.9267 0.637815 13.9247 0.31557 15.1206 0.31557C16.0877 0.31557 16.6535 0.453585 17.2746 0.637815V2.96285C17.2746 2.96285 16.73 2.72734 15.8446 2.72734H15.8447ZM23.2887 4.74738C28.3273 4.74738 29.237 8.97787 28.8898 11.8708L20.1778 11.8656C20.4258 13.8557 21.8427 14.8815 23.6358 14.8815L23.7328 14.8791C25.5205 14.8791 26.7327 13.8465 27.0339 13.5619L28.5777 14.9328C27.4228 16.3184 25.8302 17.2185 23.5892 17.2185C20.0558 17.2185 17.3309 14.8055 17.3309 10.8449C17.3309 7.39767 19.6857 4.7477 23.2883 4.7477L23.2887 4.74738ZM20.2196 9.86531H26.2086C26.18 8.06622 24.9705 7.09015 23.2662 7.09015C21.7099 7.09015 20.5083 8.04928 20.2197 9.86531H20.2196ZM34.848 15.2591C34.848 16.3414 33.9716 17.2173 32.8892 17.2173C31.8074 17.2173 30.9303 16.3414 30.9303 15.2591C30.9303 14.1772 31.8072 13.2998 32.8892 13.2998C33.9716 13.2998 34.848 14.177 34.848 15.2591ZM34.848 6.75334C34.848 7.83514 33.9716 8.71245 32.8892 8.71245C31.8074 8.71245 30.9303 7.8353 30.9303 6.75334C30.9303 5.67202 31.8072 4.79423 32.8892 4.79423C33.9716 4.79423 34.848 5.67186 34.848 6.75334ZM37.1506 0.0134263C39.6052 2.87374 41.0787 7.0023 41.0787 11.006C41.0787 15.01 39.6052 19.1393 37.1506 21.9993L35.5335 20.8012C37.2647 17.7434 38.1323 14.912 38.1323 11.0061C38.1323 7.10154 37.2647 4.26987 35.5335 1.21108L37.1506 0.0135846V0.0134263Z" fill="#005C9C"/>
</g>
<defs>
<clipPath id="clip0">
<rect width="41.1511" height="22" fill="white"/>
</clipPath>
</defs>
</svg>
